<svg width="43" height="46" viewBox="0 0 43 46" fill="none" xmlns="http://www.w3.org/2000/svg">
<g filter="url(#filter0_d_302_298)">
<path d="M10.9167 6C11.9167 5 11.1667 2 9.47869 2C7.79069 2 7.91669 4 8.91669 4C9.91669 4 9.91669 6 9.91669 7C9.91669 8 10.9167 6 10.9167 6ZM6.73369 7.72C7.73369 6.72 6.98369 3.72 5.29569 3.72C3.60769 3.72 3.73369 5.72 4.73369 5.72C5.73369 5.72 5.73369 7.72 5.73369 8.72C5.73369 9.72 6.73369 7.72 6.73369 7.72Z" fill="#AA8DD8"/>
<path d="M33.1087 34.856C33.2977 35.664 34.3357 37.136 35.1407 36.947C35.9467 36.757 36.2177 34.976 36.0287 34.17C35.8397 33.362 35.0307 32.863 34.2247 33.053C33.4197 33.243 32.9187 34.05 33.1087 34.856V34.856ZM27.6747 35.505C27.6777 36.335 28.3557 38.003 29.1837 38C30.0117 37.996 30.6777 36.323 30.6747 35.494C30.6717 34.665 29.9977 33.997 29.1697 33.999C28.3417 34.003 27.6717 34.676 27.6747 35.505V35.505ZM22.4037 33.059C22.0777 33.823 22.0387 35.622 22.7997 35.949C23.5627 36.273 24.8367 35.002 25.1627 34.239C25.4877 33.477 25.1347 32.596 24.3737 32.269C23.6117 31.944 22.7307 32.296 22.4037 33.059V33.059ZM17.3727 22.019C16.5607 22.191 15.0647 23.192 15.2337 24.002C15.4067 24.812 17.1787 25.126 17.9907 24.955C18.8017 24.784 19.3197 23.988 19.1507 23.178C18.9787 22.368 18.1857 21.848 17.3727 22.019ZM15.3357 17.019C14.5237 17.191 13.0277 18.192 13.1967 19.002C13.3697 19.812 15.1417 20.126 15.9537 19.955C16.7647 19.784 17.2827 18.988 17.1137 18.178C16.9417 17.368 16.1477 16.848 15.3357 17.019V17.019Z" fill="#744EAA"/>
<path d="M30.7457 36C33.5767 36 35.6717 35.123 36.0117 34.973C38.2827 33.963 39.3047 31.304 38.2957 29.034C37.2967 26.784 34.6797 25.759 32.4237 26.72C32.2907 26.77 30.6307 27.369 29.0807 26.648C27.2297 25.787 26.0857 23.339 25.4527 21.439C25.3087 21.009 25.0677 20.165 24.7667 19.123C22.9007 12.652 21.9347 10.838 20.7837 9.30299C17.0727 4.35199 11.1917 4.00699 8.30068 4.58699C5.86368 5.07399 4.28268 7.44499 4.77068 9.88199C5.25868 12.32 7.63068 13.902 10.0667 13.412C10.2287 13.386 12.2707 13.106 13.4907 14.581C14.1337 15.868 15.5707 19.709 16.1207 21.615C16.4667 22.814 16.7497 23.786 16.9147 24.282C18.6877 29.599 21.5807 33.175 25.5177 34.911C27.3697 35.729 29.1717 36 30.7457 36Z" fill="#9266CC"/>
<path d="M10.1837 8C10.736 8 11.1837 7.55228 11.1837 7C11.1837 6.44772 10.736 6 10.1837 6C9.63143 6 9.18372 6.44772 9.18372 7C9.18372 7.55228 9.63143 8 10.1837 8Z" fill="#202024"/>
<path d="M34.4248 34.964C34.3358 34.964 34.2448 34.952 34.1558 34.928C33.6238 34.78 33.3118 34.229 33.4598 33.697C34.2168 30.975 32.6898 29.155 32.6748 29.137C32.3158 28.718 32.3628 28.086 32.7818 27.727C33.1998 27.368 33.8328 27.415 34.1918 27.834C34.2838 27.941 36.4258 30.494 35.3868 34.231C35.2648 34.674 34.8618 34.964 34.4248 34.964V34.964ZM27.2258 34.401C26.9808 34.401 26.7358 34.312 26.5418 34.131C26.1388 33.753 26.1178 33.12 26.4948 32.717C27.9798 31.13 27.9478 28.524 27.9468 28.497C27.9308 27.945 28.3658 27.485 28.9188 27.469C29.4608 27.464 29.9318 27.888 29.9468 28.441C29.9508 28.58 30.0198 31.878 27.9558 34.085C27.7588 34.295 27.4918 34.401 27.2258 34.401V34.401ZM18.6838 25.705C18.2038 25.705 17.7798 25.358 17.6988 24.868C17.6088 24.324 17.9768 23.808 18.5218 23.719C21.5958 23.209 23.2958 21.342 23.3128 21.323C23.6778 20.913 24.3108 20.874 24.7218 21.239C25.1338 21.604 25.1748 22.232 24.8128 22.645C24.7258 22.744 22.6568 25.06 18.8488 25.691C18.7928 25.701 18.7378 25.705 18.6838 25.705V25.705ZM21.6048 30.562C21.1798 30.562 20.7858 30.29 20.6508 29.864C20.4848 29.338 20.7768 28.775 21.3028 28.609C23.9958 27.756 25.1828 25.779 25.1948 25.759C25.4748 25.282 26.0868 25.122 26.5628 25.402C27.0398 25.681 27.1988 26.295 26.9198 26.77C26.8568 26.878 25.3248 29.433 21.9068 30.514C21.8058 30.547 21.7038 30.562 21.6048 30.562V30.562ZM16.9858 19.892C16.4898 19.892 16.0588 19.523 15.9948 19.017C15.9258 18.469 16.3138 17.969 16.8618 17.899C19.5508 17.559 21.5188 15.928 21.5378 15.911C21.9598 15.557 22.5908 15.608 22.9458 16.03C23.3018 16.451 23.2508 17.08 22.8308 17.437C22.7338 17.52 20.4108 19.466 17.1128 19.883C17.0698 19.889 17.0278 19.892 16.9858 19.892V19.892ZM15.1648 15.125C14.7398 15.125 14.3458 14.852 14.2108 14.424C14.0458 13.897 14.3378 13.336 14.8648 13.17C17.9948 12.187 19.1178 10.478 19.1638 10.406C19.4588 9.94397 20.0748 9.80097 20.5388 10.094C21.0038 10.386 21.1498 10.993 20.8628 11.46C20.8028 11.557 19.3568 13.856 15.4638 15.079C15.3648 15.11 15.2638 15.125 15.1648 15.125V15.125Z" fill="#744EAA"/>
</g>
<defs>
<filter id="filter0_d_302_298" x="-3" y="0" width="48" height="48" filterUnits="userSpaceOnUse" color-interpolation-filters="sRGB">
<feFlood flood-opacity="0" result="BackgroundImageFix"/>
<feColorMatrix in="SourceAlpha" type="matrix" values="0 0 0 0 0 0 0 0 0 0 0 0 0 0 0 0 0 0 127 0" result="hardAlpha"/>
<feOffset dy="4"/>
<feGaussianBlur stdDeviation="2"/>
<feComposite in2="hardAlpha" operator="out"/>
<feColorMatrix type="matrix" values="0 0 0 0 0 0 0 0 0 0 0 0 0 0 0 0 0 0 0.25 0"/>
<feBlend mode="normal" in2="BackgroundImageFix" result="effect1_dropShadow_302_298"/>
<feBlend mode="normal" in="SourceGraphic" in2="effect1_dropShadow_302_298" result="shape"/>
</filter>
</defs>
</svg>
