<svg width="43" height="45" viewBox="0 0 43 45" fill="none" xmlns="http://www.w3.org/2000/svg">
<g filter="url(#filter0_d_302_483)">
<path d="M39 14.875C39 11.009 35.866 7.875 32 7.875C30.833 7.875 29.735 8.165 28.768 8.669C26.686 5.842 23.343 4 19.563 4C14.431 4 10.088 7.38 8.64 12.036C5.982 12.653 4 15.03 4 17.875C4 20.854 6.174 23.32 9.021 23.788C9.237 27.737 12.498 30.875 16.5 30.875C18.676 30.875 20.63 29.942 22 28.462C23.37 29.942 25.323 30.875 27.5 30.875C31.643 30.875 35 27.518 35 23.375C35 22.665 34.895 21.981 34.711 21.33C37.23 20.271 39 17.78 39 14.875Z" fill="#85C8F8"/>
<path d="M8 36.875C9.65685 36.875 11 35.5319 11 33.875C11 32.2181 9.65685 30.875 8 30.875C6.34315 30.875 5 32.2181 5 33.875C5 35.5319 6.34315 36.875 8 36.875Z" fill="#85C8F8"/>
</g>
<defs>
<filter id="filter0_d_302_483" x="-3" y="0" width="48" height="48" filterUnits="userSpaceOnUse" color-interpolation-filters="sRGB">
<feFlood flood-opacity="0" result="BackgroundImageFix"/>
<feColorMatrix in="SourceAlpha" type="matrix" values="0 0 0 0 0 0 0 0 0 0 0 0 0 0 0 0 0 0 127 0" result="hardAlpha"/>
<feOffset dy="4"/>
<feGaussianBlur stdDeviation="2"/>
<feComposite in2="hardAlpha" operator="out"/>
<feColorMatrix type="matrix" values="0 0 0 0 0 0 0 0 0 0 0 0 0 0 0 0 0 0 0.25 0"/>
<feBlend mode="normal" in2="BackgroundImageFix" result="effect1_dropShadow_302_483"/>
<feBlend mode="normal" in="SourceGraphic" in2="effect1_dropShadow_302_483" result="shape"/>
</filter>
</defs>
</svg>
